<svg xmlns="http://www.w3.org/2000/svg" xmlns:xlink="http://www.w3.org/1999/xlink" width="226.736" height="48.378" viewBox="0 0 226.736 48.378">
  <defs>
    <clipPath id="clip-path">
      <rect id="Retângulo_333" data-name="Retângulo 333" width="226.736" height="48.378" fill="none"/>
    </clipPath>
  </defs>
  <g id="Grupo_40" data-name="Grupo 40" transform="translate(0 -0.001)">
    <g id="Grupo_39" data-name="Grupo 39" transform="translate(0 0.001)" clip-path="url(#clip-path)">
      <path id="Caminho_2058" data-name="Caminho 2058" d="M55.241,38.75c-1.778-3.457-5.881-3.488-8.28-2.12a4.1,4.1,0,0,0-2.249,3.22c-.374,3.023-.763,6.053-1.353,9.039-.582,2.942,1.4,4.164,3.545,4.325A7.247,7.247,0,0,0,53.4,50.239l4.564,2.767a14.312,14.312,0,0,1-6.268,4.963,12,12,0,0,1-9.874-.191,7.078,7.078,0,0,1-4.36-7.614c.432-3.673,1-7.332,1.594-10.984a9.983,9.983,0,0,1,6.117-7.719c3.657-1.678,7.427-2.083,11.142-.118a8.215,8.215,0,0,1,3.614,3.919c.277.6.234.938-.4,1.251-1.423.7-2.811,1.463-4.282,2.238" transform="translate(-13.15 -10.56)" fill="#fff"/>
      <path id="Caminho_2059" data-name="Caminho 2059" d="M218.482,38.75c-1.778-3.457-5.881-3.488-8.28-2.12a4.1,4.1,0,0,0-2.249,3.22c-.374,3.023-.763,6.053-1.353,9.039-.582,2.942,1.4,4.164,3.545,4.325a7.247,7.247,0,0,0,6.492-2.975l4.564,2.767a14.312,14.312,0,0,1-6.268,4.963,12,12,0,0,1-9.874-.191,7.078,7.078,0,0,1-4.36-7.614c.432-3.673,1-7.332,1.594-10.984a9.983,9.983,0,0,1,6.117-7.719c3.657-1.678,7.427-2.083,11.142-.118a8.215,8.215,0,0,1,3.614,3.919c.277.6.234.938-.4,1.251-1.422.7-2.811,1.463-4.282,2.238" transform="translate(-70.553 -10.56)" fill="#fff"/>
      <path id="Caminho_2060" data-name="Caminho 2060" d="M295.447,31.627h5.509c-.346,2.536-.685,5.02-1.023,7.5a32.277,32.277,0,0,1,3.3-.428c3-.088,5.373,1.252,6.2,3.687a8.578,8.578,0,0,1,.365,3.648c-.523,4.479-1.2,8.94-1.829,13.466h-5.46c.159-1.241.3-2.46.473-3.674.459-3.234.953-6.463,1.389-9.7.219-1.624-1.338-2.807-3.212-2.494-.336.056-.665.15-1,.223a1.165,1.165,0,0,0-1.047,1.167c-.636,4.81-1.357,9.608-2.059,14.476h-5.5c1.3-9.307,2.595-18.564,3.9-27.872" transform="translate(-102.522 -11.122)" fill="#fff"/>
      <path id="Caminho_2061" data-name="Caminho 2061" d="M87.7,62.705c-1.4,0-2.679,0-3.956,0-1.035,0-.548-1.041-.856-1.261A14.952,14.952,0,0,1,79.233,63c-5.084.681-7.975-3.265-7.129-7.313.527-2.522.639-5.133,1.2-7.645.706-3.15,2.917-4.99,5.973-5.792a14.988,14.988,0,0,1,10.509,1.308.746.746,0,0,1,.464.947C89.5,49.868,88.78,55.233,88.044,60.6c-.092.675-.219,1.345-.345,2.108M82.277,46.691c-2.344,0-3.445.9-3.809,3.173-.31,1.934-.585,3.874-.856,5.814a1.855,1.855,0,0,0,1.612,2.243,11.9,11.9,0,0,0,3.009-.224c.581-.079.838-.507.916-1.1.363-2.743.768-5.481,1.14-8.224.182-1.336-.064-1.6-1.452-1.676-.187-.01-.374,0-.561,0" transform="translate(-25.303 -14.701)" fill="#fff"/>
      <path id="Caminho_2062" data-name="Caminho 2062" d="M337.2,62.705c-1.4,0-2.679,0-3.956,0-1.035,0-.548-1.041-.856-1.261A14.95,14.95,0,0,1,328.736,63c-5.084.681-7.975-3.265-7.129-7.313.527-2.522.639-5.133,1.2-7.645.706-3.15,2.917-4.99,5.973-5.792a14.988,14.988,0,0,1,10.508,1.308.746.746,0,0,1,.464.947c-.747,5.362-1.471,10.727-2.207,16.091-.092.675-.219,1.345-.345,2.108M331.78,46.691c-2.344,0-3.445.9-3.809,3.173-.31,1.934-.585,3.874-.856,5.814a1.855,1.855,0,0,0,1.612,2.243,11.9,11.9,0,0,0,3.009-.224c.581-.079.838-.507.916-1.1.363-2.743.768-5.481,1.14-8.224.181-1.336-.064-1.6-1.452-1.676-.187-.01-.374,0-.561,0" transform="translate(-113.039 -14.701)" fill="#fff"/>
      <path id="Caminho_2063" data-name="Caminho 2063" d="M142.721,62.664a6.754,6.754,0,0,1-2.82-1.33,5.427,5.427,0,0,1-2.2-5.254c.276-2.315.731-4.61,1-6.926a7.913,7.913,0,0,1,4.961-6.61,9.123,9.123,0,0,1,8.612.119,5.748,5.748,0,0,1,2.92,6.18c-.276,2.315-.656,4.619-1.028,6.921-.576,3.567-2.824,5.642-6.148,6.659a11.319,11.319,0,0,1-5.3.241m6.515-15.223a2.944,2.944,0,0,0-3.124-.6,2.4,2.4,0,0,0-1.926,2.13c-.283,2.156-.654,4.3-.859,6.465a2.426,2.426,0,0,0,.6,1.731c1.385,1.392,4.373.494,4.73-1.436.385-2.083.635-4.191.929-6.465a2.328,2.328,0,0,0-.351-1.828" transform="translate(-48.405 -14.602)" fill="#fff"/>
      <path id="Caminho_2064" data-name="Caminho 2064" d="M242.566,42.371c-.554,3.927-1.092,7.714-1.622,11.5a14.273,14.273,0,0,0-.172,1.673c-.034,1.629,1.677,2.923,3.551,2.714,1.415-.158,1.435-.156,1.637-1.572.622-4.341,1.226-8.685,1.84-13.028.056-.4.135-.794.211-1.236h5.427c-.264,1.89-.518,3.727-.777,5.562-.618,4.374-1.257,8.744-1.838,13.123a1,1,0,0,1-.838.937,22.984,22.984,0,0,1-9.019,1.146c-2.444-.244-4.648-1.046-5.5-3.61a8.449,8.449,0,0,1-.328-3.574c.521-4.323,1.183-8.628,1.831-12.935.038-.259.4-.662.62-.67,1.615-.058,3.233-.031,4.981-.031" transform="translate(-82.662 -14.898)" fill="#fff"/>
      <path id="Caminho_2065" data-name="Caminho 2065" d="M278.712,63.3h-5.455c.318-2.3.627-4.566.944-6.829.276-1.972.554-3.944.845-5.914.391-2.641-1.557-3.189-3.541-2.953-1.4.167-1.514.407-1.7,1.832-.429,3.3-.919,6.6-1.384,9.893-.182,1.291-.359,2.583-.548,3.945h-5.512c.449-3.214.888-6.383,1.333-9.551.416-2.958.826-5.916,1.271-8.87a1.125,1.125,0,0,1,.477-.786c3.431-1.419,6.958-2.166,10.645-1.17a5.576,5.576,0,0,1,4.448,4.3,8.365,8.365,0,0,1,.086,2.785c-.591,4.408-1.256,8.806-1.911,13.319" transform="translate(-92.258 -14.925)" fill="#fff"/>
      <path id="Caminho_2066" data-name="Caminho 2066" d="M181.1,43.809c-.438.516-.775.924-1.124,1.322-.7.8-1.4,1.588-1.926,2.181a31.635,31.635,0,0,0-3.574-.823,1.6,1.6,0,0,0-1.871,1.314,1.688,1.688,0,0,0,1.188,2.053c.713.3,1.471.484,2.2.754,2.148.8,3.819,2.109,4.039,4.544a6.689,6.689,0,0,1-2.53,6.215c-2.564,2-7.706,2.231-10.482.52a6.567,6.567,0,0,1-.69-.481c-1.668-1.352-1.7-1.658-.36-3.247.6-.713,1.229-1.406,1.885-2.151a6.986,6.986,0,0,0,4.56,2.143c.721.021,1.463,0,1.861-.779a1.653,1.653,0,0,0-1.114-2.485c-.709-.23-1.457-.348-2.146-.622A5.855,5.855,0,0,1,167,48.549a6.5,6.5,0,0,1,4.584-6.29,9.84,9.84,0,0,1,9.517,1.549" transform="translate(-58.027 -14.656)" fill="#fff"/>
      <path id="Caminho_2067" data-name="Caminho 2067" d="M129.977,54.393c-.226,1.557-.444,3.057-.657,4.526-4.326,1.153-7.955-1.506-7.817-5.87a75,75,0,0,1,.935-7.865c.653-4.712,1.349-9.418,2.028-14.127a3.27,3.27,0,0,1,.084-.316h5.462c-.318,2.244-.626,4.448-.942,6.65-.654,4.555-1.338,9.106-1.957,13.666-.3,2.176.279,2.812,2.863,3.336" transform="translate(-42.724 -10.81)" fill="#fff"/>
      <path id="Caminho_2068" data-name="Caminho 2068" d="M113.877,42.942c-.211,1.548-.414,3.049-.6,4.415-1.007,0-1.955-.047-2.9.011a3.006,3.006,0,0,0-2.882,2.59c-.591,4.031-1.132,8.071-1.7,12.106-.056.4-.133.8-.209,1.247h-5.455c.162-1.316.3-2.6.482-3.875q.7-4.9,1.428-9.788a7.828,7.828,0,0,1,5.811-6.722,9.879,9.879,0,0,1,6.02.016" transform="translate(-35.212 -14.932)" fill="#fff"/>
      <path id="Caminho_2069" data-name="Caminho 2069" d="M163.577,9.723c.1-.01.178-.023.251-.023,1.576,0,3.161-.029,4.725.034a4.641,4.641,0,0,1,1.722.43,2.1,2.1,0,0,1,1.18,2.4,2.876,2.876,0,0,1-1.28,2.276,8.076,8.076,0,0,1-1.277.573,3.691,3.691,0,0,1-.46.128l2.693,3.559c-.97,0-1.857.005-2.742-.008-.093,0-.187-.1-.244-.175q-1.084-1.435-2.157-2.878c-.336-.449-.336-.449-1.1-.357-.2,1.122-.391,2.25-.59,3.4h-2.347c.541-3.12,1.08-6.224,1.625-9.359m2.029,1.95c-.13.752-.255,1.469-.388,2.235.908-.032,1.786-.028,2.668-.107a1.29,1.29,0,0,0,1.257-1.2c.054-.534-.316-.9-1.024-.923-.823-.027-1.657-.006-2.514-.006" transform="translate(-56.949 -3.41)" fill="#fff"/>
      <path id="Caminho_2070" data-name="Caminho 2070" d="M209.169,14.321c.093-.536.193-1.071.277-1.607a3.517,3.517,0,0,1,2.211-2.63,6.709,6.709,0,0,1,5.909.172,2.24,2.24,0,0,1,1.052,2.384c-.183,1.071-.4,2.143-.551,3.213a3.793,3.793,0,0,1-2.905,2.953,6.121,6.121,0,0,1-5.359-.5,2.112,2.112,0,0,1-.936-2.219c.093-.588.2-1.176.3-1.765m2.308-.009c-.091.525-.165,1.049-.278,1.573a.836.836,0,0,0,.555,1.035,4,4,0,0,0,3.116-.03,1.267,1.267,0,0,0,.873-.992q.257-1.573.545-3.146a.854.854,0,0,0-.536-1.021,3.917,3.917,0,0,0-3-.045,1.348,1.348,0,0,0-1.021,1.116c-.06.5-.169,1.007-.256,1.51" transform="translate(-73.433 -3.336)" fill="#fff"/>
      <path id="Caminho_2071" data-name="Caminho 2071" d="M156.063,11.47l-2,.832a2.044,2.044,0,0,0-2.122-1.025,1.929,1.929,0,0,0-2.088,1.555q-.256,1.465-.509,2.929c-.137.794.127,1.173,1,1.384a3.479,3.479,0,0,0,1.834-.049c.954-.284,1.291-.672,1.308-1.525h-2.47l.329-1.892h4.747c.007.008.034.024.032.04-.145.851-.248,1.7-.451,2.55a3.55,3.55,0,0,1-2.184,2.326c-1.89.867-4.432.709-5.7-.368a2.124,2.124,0,0,1-.794-2.1c.2-1.144.439-2.291.583-3.433.212-1.675,1.791-2.709,3.365-3.048a5.96,5.96,0,0,1,3.3.116,2.9,2.9,0,0,1,1.818,1.7" transform="translate(-51.677 -3.332)" fill="#fff"/>
      <path id="Caminho_2072" data-name="Caminho 2072" d="M185.474,9.724h2.289a.58.58,0,0,1,.014.15c-.362,2.09-.71,4.179-1.1,6.269a3.674,3.674,0,0,1-2.847,2.768,5.531,5.531,0,0,1-4.931-.488,2.109,2.109,0,0,1-.963-2.181c.344-2.121.725-4.243,1.093-6.364a1.442,1.442,0,0,1,.043-.144h2.3c-.022.128-.043.251-.065.373q-.5,2.85-.989,5.7c-.137.791.2,1.261,1.087,1.432a3.616,3.616,0,0,0,1.808-.09,1.548,1.548,0,0,0,1.18-1.217q.508-2.915,1.012-5.829c.019-.114.04-.228.066-.381" transform="translate(-62.559 -3.42)" fill="#fff"/>
      <path id="Caminho_2073" data-name="Caminho 2073" d="M196.356,16.168c-.091.524-.174,1-.257,1.485s-.163.941-.249,1.432h-2.265q.813-4.688,1.624-9.358c.1-.01.172-.024.244-.023,1.515,0,3.033-.014,4.542.015a2.85,2.85,0,0,1,3.077,2.842,4.02,4.02,0,0,1-3.333,3.483,8.865,8.865,0,0,1-1.492.121c-.62.02-1.235.005-1.891.005m.342-1.845c.785,0,1.548.016,2.316,0a1.727,1.727,0,0,0,1.666-1.186,1.092,1.092,0,0,0-1.023-1.43c-.812-.06-1.653-.014-2.5-.014l-.457,2.635" transform="translate(-68.072 -3.411)" fill="#fff"/>
      <path id="Caminho_2074" data-name="Caminho 2074" d="M12.306,22.533c4.943-11.617,34.909-15.789,66.931-9.318q2.969.6,5.818,1.291a124.231,124.231,0,0,0-18.92-5.341C37.069,3.292,9.759,7.338,5.137,18.2c-2.7,6.354,2.957,13.633,13.936,19.756-6.172-5.123-8.844-10.542-6.768-15.423" transform="translate(-1.571 -2.276)" fill="#eda800"/>
      <path id="Caminho_2075" data-name="Caminho 2075" d="M22.326,32.312c2.137-10.691,21.841-17.984,46.663-18.3-26.312-1.6-48.43,4.667-50.429,14.665-.672,3.363,1.015,6.744,4.537,9.878a10.26,10.26,0,0,1-.771-6.244" transform="translate(-6.476 -4.841)" fill="#eda800"/>
      <path id="Caminho_2076" data-name="Caminho 2076" d="M3.506,11.948C9.339,2.128,30.289-.2,54.452,4.5,29.52-2.334,6.591-1.478,1.136,7.706-.7,10.794-.253,14.376,2.055,18.09a10.356,10.356,0,0,1,1.45-6.142" transform="translate(0 0)" fill="#eda800"/>
    </g>
  </g>
</svg>
