<svg xmlns="http://www.w3.org/2000/svg" xmlns:xlink="http://www.w3.org/1999/xlink" width="202.329" height="43.17" viewBox="0 0 202.329 43.17">
  <defs>
    <clipPath id="clip-path">
      <rect id="Retângulo_333" data-name="Retângulo 333" width="202.329" height="43.17" fill="none"/>
    </clipPath>
  </defs>
  <g id="Grupo_40" data-name="Grupo 40" transform="translate(0)">
    <g id="Grupo_39" data-name="Grupo 39" transform="translate(0 0)" clip-path="url(#clip-path)">
      <path id="Caminho_2058" data-name="Caminho 2058" d="M53.32,37.811c-1.586-3.085-5.248-3.113-7.389-1.892a3.659,3.659,0,0,0-2.007,2.873c-.334,2.7-.681,5.4-1.207,8.066-.52,2.626,1.253,3.716,3.163,3.86a6.467,6.467,0,0,0,5.793-2.655l4.073,2.469a12.772,12.772,0,0,1-5.593,4.429,10.708,10.708,0,0,1-8.811-.17A6.316,6.316,0,0,1,37.451,48c.385-3.278.894-6.543,1.423-9.8a8.908,8.908,0,0,1,5.459-6.888c3.264-1.5,6.627-1.858,9.943-.105A7.331,7.331,0,0,1,57.5,34.7c.248.532.209.837-.359,1.116-1.269.623-2.509,1.306-3.821,2" transform="translate(-15.76 -12.655)" fill="#2e2e2d"/>
      <path id="Caminho_2059" data-name="Caminho 2059" d="M216.561,37.811c-1.586-3.085-5.248-3.113-7.389-1.892a3.659,3.659,0,0,0-2.007,2.873c-.334,2.7-.681,5.4-1.207,8.066-.52,2.626,1.253,3.716,3.163,3.86a6.467,6.467,0,0,0,5.793-2.655l4.073,2.469a12.772,12.772,0,0,1-5.593,4.429,10.708,10.708,0,0,1-8.811-.17A6.316,6.316,0,0,1,200.692,48c.385-3.278.894-6.543,1.423-9.8a8.908,8.908,0,0,1,5.459-6.888c3.264-1.5,6.627-1.858,9.943-.105a7.331,7.331,0,0,1,3.225,3.5c.248.532.209.837-.359,1.116-1.269.623-2.509,1.306-3.821,2" transform="translate(-84.556 -12.655)" fill="#2e2e2d"/>
      <path id="Caminho_2060" data-name="Caminho 2060" d="M295.028,31.627h4.916c-.308,2.263-.611,4.479-.913,6.692a28.8,28.8,0,0,1,2.941-.382c2.677-.078,4.795,1.117,5.536,3.29a7.654,7.654,0,0,1,.326,3.256c-.466,4-1.072,7.977-1.632,12.016h-4.872c.142-1.107.268-2.2.422-3.278.41-2.886.85-5.767,1.24-8.655.2-1.449-1.194-2.5-2.866-2.226-.3.05-.594.134-.89.2a1.04,1.04,0,0,0-.934,1.041c-.568,4.292-1.211,8.574-1.838,12.918h-4.911c1.161-8.3,2.315-16.566,3.477-24.871" transform="translate(-122.869 -13.329)" fill="#2e2e2d"/>
      <path id="Caminho_2061" data-name="Caminho 2061" d="M86,60.456c-1.252,0-2.391,0-3.53,0-.924,0-.489-.929-.764-1.125A13.343,13.343,0,0,1,78.45,60.72c-4.537.607-7.117-2.914-6.362-6.526.47-2.251.57-4.581,1.073-6.822A6.756,6.756,0,0,1,78.49,42.2a13.375,13.375,0,0,1,9.377,1.168.665.665,0,0,1,.414.845c-.667,4.785-1.313,9.572-1.969,14.359-.082.6-.2,1.2-.308,1.881M81.166,46.165c-2.092,0-3.074.8-3.4,2.831-.277,1.726-.522,3.457-.764,5.188a1.655,1.655,0,0,0,1.439,2,10.623,10.623,0,0,0,2.685-.2c.518-.071.748-.452.818-.986.324-2.448.685-4.891,1.018-7.339.162-1.192-.057-1.431-1.3-1.5-.167-.009-.334,0-.5,0" transform="translate(-30.325 -17.619)" fill="#2e2e2d"/>
      <path id="Caminho_2062" data-name="Caminho 2062" d="M335.508,60.456c-1.252,0-2.391,0-3.53,0-.924,0-.489-.929-.764-1.125a13.343,13.343,0,0,1-3.261,1.389c-4.537.607-7.117-2.914-6.362-6.526.47-2.251.57-4.581,1.073-6.822a6.756,6.756,0,0,1,5.33-5.169,13.375,13.375,0,0,1,9.377,1.168.665.665,0,0,1,.414.845c-.667,4.785-1.313,9.572-1.969,14.359-.082.6-.2,1.2-.308,1.881m-4.839-14.291c-2.091,0-3.074.8-3.4,2.831-.277,1.726-.522,3.457-.764,5.188a1.655,1.655,0,0,0,1.439,2,10.623,10.623,0,0,0,2.685-.2c.518-.071.747-.452.818-.986.324-2.448.685-4.891,1.018-7.339.162-1.192-.057-1.431-1.3-1.5-.167-.009-.334,0-.5,0" transform="translate(-135.474 -17.619)" fill="#2e2e2d"/>
      <path id="Caminho_2063" data-name="Caminho 2063" d="M142.176,60.389a6.027,6.027,0,0,1-2.517-1.187,4.843,4.843,0,0,1-1.961-4.689c.246-2.066.653-4.114.894-6.18a7.061,7.061,0,0,1,4.427-5.9,8.141,8.141,0,0,1,7.685.106,5.129,5.129,0,0,1,2.606,5.515c-.246,2.066-.585,4.122-.917,6.176-.514,3.183-2.52,5.035-5.487,5.942a10.1,10.1,0,0,1-4.73.215M147.989,46.8a2.627,2.627,0,0,0-2.788-.533,2.138,2.138,0,0,0-1.719,1.9c-.252,1.924-.583,3.839-.767,5.769a2.165,2.165,0,0,0,.536,1.545,2.672,2.672,0,0,0,4.221-1.282c.344-1.858.567-3.74.829-5.769a2.077,2.077,0,0,0-.313-1.632" transform="translate(-58.012 -17.5)" fill="#2e2e2d"/>
      <path id="Caminho_2064" data-name="Caminho 2064" d="M241.759,42.37c-.495,3.5-.974,6.884-1.447,10.263a12.735,12.735,0,0,0-.154,1.493,2.7,2.7,0,0,0,3.169,2.422c1.263-.141,1.28-.139,1.461-1.4.555-3.874,1.094-7.75,1.642-11.626.05-.356.12-.708.188-1.1h4.843c-.236,1.687-.462,3.326-.694,4.964-.551,3.9-1.121,7.8-1.64,11.71a.889.889,0,0,1-.748.836,20.51,20.51,0,0,1-8.048,1.023c-2.181-.218-4.148-.934-4.91-3.221a7.539,7.539,0,0,1-.293-3.189c.465-3.857,1.056-7.7,1.634-11.542.034-.231.355-.591.553-.6,1.441-.051,2.885-.028,4.445-.028" transform="translate(-99.067 -17.854)" fill="#2e2e2d"/>
      <path id="Caminho_2065" data-name="Caminho 2065" d="M276.952,61.058h-4.868c.284-2.055.559-4.075.842-6.094.246-1.76.494-3.519.754-5.278.349-2.357-1.389-2.846-3.16-2.635-1.25.149-1.351.363-1.516,1.634-.382,2.946-.82,5.885-1.235,8.828-.162,1.152-.32,2.305-.489,3.521h-4.919c.4-2.868.793-5.7,1.19-8.523.371-2.639.737-5.279,1.134-7.915a1,1,0,0,1,.426-.7c3.061-1.266,6.209-1.932,9.5-1.044a4.975,4.975,0,0,1,3.969,3.838,7.465,7.465,0,0,1,.076,2.485c-.527,3.934-1.121,7.858-1.705,11.885" transform="translate(-110.569 -17.888)" fill="#2e2e2d"/>
      <path id="Caminho_2066" data-name="Caminho 2066" d="M179.371,43.579c-.391.461-.692.824-1,1.18-.623.711-1.251,1.417-1.719,1.946a28.229,28.229,0,0,0-3.19-.734,1.429,1.429,0,0,0-1.67,1.173,1.506,1.506,0,0,0,1.061,1.832c.636.265,1.313.432,1.961.673,1.917.713,3.408,1.882,3.6,4.055a5.969,5.969,0,0,1-2.258,5.546c-2.288,1.784-6.877,1.991-9.354.464a5.858,5.858,0,0,1-.616-.429c-1.488-1.207-1.521-1.479-.321-2.9.538-.636,1.1-1.254,1.682-1.92a6.234,6.234,0,0,0,4.069,1.912c.643.019,1.306,0,1.661-.7a1.475,1.475,0,0,0-.995-2.218c-.632-.2-1.3-.311-1.915-.555a5.225,5.225,0,0,1-3.581-5.1,5.8,5.8,0,0,1,4.09-5.613,8.781,8.781,0,0,1,8.492,1.382" transform="translate(-69.543 -17.565)" fill="#2e2e2d"/>
      <path id="Caminho_2067" data-name="Caminho 2067" d="M129.064,51.847c-.2,1.39-.4,2.728-.586,4.038-3.861,1.029-7.1-1.344-6.976-5.238a66.919,66.919,0,0,1,.834-7.018c.583-4.205,1.2-8.4,1.81-12.606.012-.078.041-.154.075-.282H129.1c-.284,2-.559,3.969-.841,5.934-.584,4.065-1.194,8.126-1.746,12.2-.264,1.942.249,2.509,2.555,2.977" transform="translate(-51.204 -12.956)" fill="#2e2e2d"/>
      <path id="Caminho_2068" data-name="Caminho 2068" d="M112.4,42.89c-.188,1.382-.37,2.721-.536,3.939-.9,0-1.744-.042-2.585.01a2.682,2.682,0,0,0-2.572,2.311c-.528,3.6-1.01,7.2-1.514,10.8-.05.356-.119.71-.187,1.113h-4.868c.145-1.174.268-2.319.43-3.458q.622-4.369,1.274-8.734a6.986,6.986,0,0,1,5.185-6,8.816,8.816,0,0,1,5.372.014" transform="translate(-42.201 -17.896)" fill="#2e2e2d"/>
      <path id="Caminho_2069" data-name="Caminho 2069" d="M163.4,9.72c.092-.009.159-.02.224-.02,1.407,0,2.821-.026,4.216.031a4.141,4.141,0,0,1,1.537.384,1.873,1.873,0,0,1,1.053,2.141,2.567,2.567,0,0,1-1.142,2.031,7.206,7.206,0,0,1-1.139.511,3.3,3.3,0,0,1-.41.115l2.4,3.176c-.866,0-1.658,0-2.447-.008-.083,0-.167-.089-.218-.156q-.968-1.281-1.925-2.568c-.3-.4-.3-.4-.981-.318-.174,1-.349,2.008-.526,3.033h-2.094c.483-2.784.964-5.554,1.45-8.352m1.81,1.74-.346,1.994c.81-.029,1.594-.025,2.381-.1a1.151,1.151,0,0,0,1.122-1.07c.048-.476-.282-.8-.914-.823-.734-.024-1.478-.006-2.243-.006" transform="translate(-68.252 -4.086)" fill="#2e2e2d"/>
      <path id="Caminho_2070" data-name="Caminho 2070" d="M209.132,13.8c.083-.478.172-.956.247-1.434a3.139,3.139,0,0,1,1.973-2.347,5.987,5.987,0,0,1,5.272.154,2,2,0,0,1,.938,2.127c-.163.956-.354,1.912-.492,2.867a3.385,3.385,0,0,1-2.593,2.635,5.462,5.462,0,0,1-4.782-.448,1.885,1.885,0,0,1-.835-1.98c.083-.525.18-1.05.271-1.575m2.06-.008c-.081.468-.147.936-.248,1.4a.746.746,0,0,0,.5.923,3.567,3.567,0,0,0,2.781-.027,1.131,1.131,0,0,0,.779-.885q.229-1.4.487-2.807a.762.762,0,0,0-.478-.911,3.5,3.5,0,0,0-2.675-.04,1.2,1.2,0,0,0-.911,1c-.054.448-.15.9-.229,1.347" transform="translate(-88.008 -3.999)" fill="#2e2e2d"/>
      <path id="Caminho_2071" data-name="Caminho 2071" d="M155.083,11.255,153.3,12a1.824,1.824,0,0,0-1.894-.915,1.722,1.722,0,0,0-1.864,1.388q-.228,1.307-.454,2.614c-.122.708.113,1.047.892,1.235a3.105,3.105,0,0,0,1.636-.044c.852-.253,1.152-.6,1.168-1.361h-2.2l.293-1.688h4.236c.006.008.031.021.028.035-.13.759-.222,1.519-.4,2.276a3.168,3.168,0,0,1-1.949,2.075,5.212,5.212,0,0,1-5.085-.329,1.9,1.9,0,0,1-.709-1.87c.179-1.021.392-2.044.521-3.064a3.537,3.537,0,0,1,3-2.72,5.318,5.318,0,0,1,2.946.1,2.585,2.585,0,0,1,1.622,1.52" transform="translate(-61.933 -3.993)" fill="#2e2e2d"/>
      <path id="Caminho_2072" data-name="Caminho 2072" d="M184.659,9.724H186.7a.514.514,0,0,1,.012.134c-.323,1.865-.634,3.729-.98,5.594a3.278,3.278,0,0,1-2.54,2.47,4.936,4.936,0,0,1-4.4-.436,1.882,1.882,0,0,1-.86-1.946c.307-1.893.647-3.786.975-5.679a1.25,1.25,0,0,1,.039-.128H181c-.02.115-.039.224-.058.333q-.442,2.544-.883,5.088c-.123.706.178,1.125.97,1.278a3.226,3.226,0,0,0,1.614-.08,1.381,1.381,0,0,0,1.053-1.086q.453-2.6.9-5.2c.017-.1.035-.2.059-.34" transform="translate(-74.975 -4.098)" fill="#2e2e2d"/>
      <path id="Caminho_2073" data-name="Caminho 2073" d="M196.057,15.472c-.081.467-.156.9-.23,1.325s-.146.84-.222,1.277h-2.022q.726-4.183,1.449-8.351c.087-.009.153-.021.218-.021,1.352,0,2.707-.013,4.053.013a2.543,2.543,0,0,1,2.746,2.536,3.587,3.587,0,0,1-2.974,3.108,7.911,7.911,0,0,1-1.331.108c-.553.018-1.1,0-1.687,0m.3-1.647c.7,0,1.382.014,2.067,0a1.541,1.541,0,0,0,1.487-1.059A.974.974,0,0,0,199,11.486c-.724-.054-1.475-.012-2.233-.012l-.408,2.351" transform="translate(-81.583 -4.088)" fill="#2e2e2d"/>
      <path id="Caminho_2074" data-name="Caminho 2074" d="M11.462,20.8c4.411-10.367,31.151-14.09,59.726-8.315q2.65.535,5.192,1.152A110.857,110.857,0,0,0,59.5,8.875C33.56,3.634,9.19,7.244,5.065,16.938,2.653,22.607,7.7,29.1,17.5,34.567,11.994,30,9.609,25.16,11.462,20.8" transform="translate(-1.883 -2.727)" fill="#eda800"/>
      <path id="Caminho_2075" data-name="Caminho 2075" d="M21.9,30.316c1.907-9.541,19.49-16.048,41.64-16.329-23.479-1.426-43.217,4.165-45,13.086-.6,3,.906,6.018,4.048,8.814a9.156,9.156,0,0,1-.688-5.572" transform="translate(-7.761 -5.802)" fill="#eda800"/>
      <path id="Caminho_2076" data-name="Caminho 2076" d="M3.128,10.662C8.334,1.9,27.029-.179,48.59,4.016,26.343-2.082,5.881-1.319,1.014,6.876c-1.637,2.756-1.239,5.952.82,9.267a9.241,9.241,0,0,1,1.294-5.481" transform="translate(0 0)" fill="#eda800"/>
    </g>
  </g>
</svg>
